<svg width="20" height="20" viewBox="0 0 20 20" fill="none" xmlns="http://www.w3.org/2000/svg">
<path d="M10.4238 12.2323C10.9709 12.6177 11.5444 12.9418 12.1357 13.187C12.5028 13.3202 13.0788 12.9431 13.5024 12.6659C13.6083 12.5967 13.7046 12.5336 13.7858 12.4863L13.8125 12.4714C14.2114 12.2473 14.6545 11.9985 15.2242 12.1185C15.736 12.2236 17.492 13.6074 17.9774 14.0979C18.295 14.4132 18.4715 14.7461 18.498 15.0877C18.5509 16.3577 16.8478 17.7853 16.4419 18.0306C15.5771 18.6612 14.4212 18.6525 13.0269 18.0218C11.5356 17.4175 9.75311 16.1475 8.03237 14.6059C7.4164 14.0541 6.2335 12.8923 5.89687 12.5042C4.15849 10.6211 2.69365 8.59786 2.00536 6.95998C1.67886 6.26804 1.52002 5.62866 1.52002 5.05934C1.52002 4.49878 1.67886 3.99953 1.98771 3.57036C2.17302 3.24629 3.66432 1.47702 4.97914 1.52082C5.30564 1.55585 5.64097 1.72227 5.96747 2.03758C6.46163 2.51931 7.88234 4.2623 7.98823 4.77906C8.10905 5.33582 7.85853 5.7753 7.63284 6.17124L7.61761 6.19797C7.56674 6.28586 7.49778 6.39011 7.42239 6.50408L7.42239 6.50408L7.42238 6.50409C7.14463 6.92397 6.77961 7.47576 6.91078 7.82709C7.23816 8.63289 7.70585 9.42118 8.26973 10.1482C8.89552 10.8964 9.87665 11.8469 10.4238 12.2323Z" stroke="#4FD471" stroke-width="1.5"/>
</svg>
