<svg width="185" height="40" viewBox="0 0 185 40" fill="none" xmlns="http://www.w3.org/2000/svg">
<path d="M59.2988 29.9083C58.6817 29.5504 58.21 29.3021 57.5703 29.3021C56.4719 29.3021 55.9549 30.1212 55.9549 30.7693C55.9549 31.7432 56.8176 32.0463 57.6608 32.3366C58.5687 32.6623 59.6154 33.1653 59.6154 34.5101C59.6154 35.8548 58.4588 36.6159 57.3926 36.6159C56.6851 36.6159 56.0131 36.3353 55.4283 35.9451V35.2518C56.0906 35.7226 56.6625 36.058 57.37 36.058C58.4685 36.058 58.9984 35.2292 58.9984 34.5327C58.9984 33.5007 58.0323 33.1105 57.4282 32.9074C56.4169 32.5591 56.2166 32.3914 56.0486 32.2463C55.6448 31.898 55.354 31.3949 55.354 30.7887C55.354 29.7697 56.2199 28.7732 57.5219 28.7732C58.1519 28.7732 58.756 28.9538 59.3053 29.2537V29.9083H59.2988Z" fill="white"/>
<path d="M68.742 30.0663C68.1475 29.7632 67.3043 29.3375 66.138 29.3375C64.0961 29.3375 62.7036 30.75 62.7036 32.6977C62.7036 34.681 64.1413 36.0483 66.1057 36.0483C67.3398 36.0483 68.3737 35.5097 68.8228 35.2872V35.9032C67.5757 36.5642 66.5095 36.6191 66.1057 36.6191C64.0056 36.6191 62.0316 35.1615 62.0316 32.7074C62.0316 30.0953 64.2544 28.7732 66.0281 28.7732C66.9715 28.7732 67.8923 29.0215 68.7452 29.4117V30.0663H68.742Z" fill="white"/>
<path d="M77.7047 36.5199H77.1102V32.9017H71.9926V36.5199H71.4078V28.8772H71.9926V32.3954H77.1102V28.8804H77.7047V36.5199Z" fill="white"/>
<path d="M84.9739 29.3699H81.3942V32.4173H84.8867V32.9107H81.3942V36.0355H85.0644V36.516H80.7997V28.8733H84.9739V29.3699Z" fill="white"/>
<path d="M88.0113 36.5199H87.4036V28.8772H88.0113V36.5199Z" fill="white"/>
<path d="M96.9118 29.3706H94.0493V36.5199H93.4419V29.3706H90.5697V28.8772H96.9118V29.3706Z" fill="white"/>
<path d="M99.7353 36.0394H103.528V36.5199H99.1505V28.8772H99.7353V36.0394Z" fill="white"/>
<path d="M106.65 36.5199H106.042V28.8772H106.65V36.5199Z" fill="white"/>
<path d="M116.642 36.5199H116.148L110.332 29.7962V36.5199H109.738V28.8772H110.287L116.044 35.5557V28.8804H116.639V36.5199H116.642Z" fill="white"/>
<path d="M122.147 34.2554H119.486V33.7298H122.147V34.2554Z" fill="white"/>
<path d="M126.852 28.8804C127.931 28.8804 128.399 28.903 128.939 29.2061C129.524 29.5318 129.892 30.1123 129.892 30.8862C129.892 31.6827 129.475 32.3535 128.903 32.634C128.251 32.9372 127.779 32.9468 126.929 32.9468H125.886V36.5199H125.301V28.8772H126.852V28.8804ZM125.886 29.3609V32.4535H126.965C127.718 32.4535 128.222 32.4083 128.684 32.1181C129.033 31.8956 129.233 31.3796 129.233 30.9088C129.233 30.438 129.029 29.9671 128.671 29.7092C128.344 29.4867 127.954 29.3609 126.874 29.3609H125.886Z" fill="white"/>
<path d="M138.014 36.5195H137.397L136.185 33.8752H132.447L131.236 36.5195H130.619L134.131 28.822H134.48L138.014 36.5195ZM134.308 29.7862L132.657 33.3722H135.946L134.308 29.7862Z" fill="white"/>
<path d="M142.124 28.8804C143.203 28.8804 143.671 28.903 144.211 29.2061C144.795 29.5318 145.164 30.1123 145.164 30.8862C145.164 31.6827 144.747 32.3535 144.175 32.634C143.522 32.9372 143.051 32.9468 142.201 32.9468H141.158V36.5199H140.573V28.8772H142.124V28.8804ZM141.158 29.3609V32.4535H142.237C142.989 32.4535 143.493 32.4083 143.955 32.1181C144.304 31.8956 144.505 31.3796 144.505 30.9088C144.505 30.438 144.301 29.9671 143.943 29.7092C143.616 29.4867 143.225 29.3609 142.146 29.3609H141.158Z" fill="white"/>
<path d="M148.133 36.5199H147.525V28.8772H148.133V36.5199Z" fill="white"/>
<path d="M155.399 29.3699H151.819V32.4173H155.312V32.9107H151.819V36.0355H155.49V36.516H151.225V28.8733H155.399V29.3699Z" fill="white"/>
<path d="M159.67 28.8806C160.555 28.8806 161.004 28.9128 161.499 29.1063C162.106 29.3514 162.655 29.9899 162.655 30.8542C162.655 31.7829 162.116 32.3795 161.195 32.7149C161.634 32.9954 161.835 33.2985 163.599 35.9977L163.957 36.5233H163.25L161.78 34.2144C161.544 33.8435 161.14 33.3082 160.836 33.0954C160.5 32.86 160.129 32.86 159.567 32.86H158.746V36.5233H158.151V28.8806H159.67ZM158.749 29.3708V32.3505H159.57C160.445 32.3505 160.872 32.3053 161.289 32.1021C161.705 31.899 161.983 31.3733 161.983 30.8477C161.983 30.3221 161.702 29.8287 161.276 29.6158C161.03 29.4933 160.668 29.3708 159.715 29.3708H158.749Z" fill="white"/>
<path d="M167.147 36.5204H166.416V35.4337H167.147V36.5204Z" fill="white"/>
<path d="M176.205 30.0663C175.611 29.7632 174.768 29.3375 173.601 29.3375C171.559 29.3375 170.167 30.75 170.167 32.6977C170.167 34.681 171.605 36.0483 173.569 36.0483C174.803 36.0483 175.837 35.5097 176.286 35.2872V35.9032C175.039 36.5642 173.973 36.6191 173.569 36.6191C171.469 36.6191 169.495 35.1615 169.495 32.7074C169.495 30.0953 171.718 28.7732 173.492 28.7732C174.435 28.7732 175.356 29.0215 176.209 29.4117V30.0663H176.205Z" fill="white"/>
<path d="M185 36.5199H184.405V32.9017H179.288V36.5199H178.703V28.8772H179.288V32.3954H184.405V28.8804H185V36.5199Z" fill="white"/>
<path d="M65.353 8.102V10.9882C63.3919 10.1078 61.8282 9.66602 60.6618 9.66602C59.9995 9.66602 59.4697 9.77566 59.0787 9.99817C58.6878 10.2207 58.4907 10.5141 58.4907 10.8818C58.4907 11.1623 58.6329 11.43 58.914 11.6847C59.1951 11.9395 59.8832 12.2652 60.9785 12.6683C62.0737 13.0714 62.946 13.4422 63.6051 13.7873C64.2642 14.1323 64.8264 14.6193 65.3045 15.2449C65.7795 15.8705 66.0185 16.6638 66.0185 17.6216C66.0185 18.9889 65.4984 20.0756 64.458 20.8883C63.4177 21.6977 62.0446 22.104 60.3452 22.104C58.5101 22.104 56.7332 21.63 55.0079 20.6786V17.499C55.9965 18.1601 56.8721 18.6438 57.6346 18.9469C58.397 19.2501 59.2047 19.4016 60.0577 19.4016C61.5051 19.4016 62.2288 18.9469 62.2288 18.0408C62.2288 17.7312 62.0834 17.4377 61.7959 17.1636C61.5051 16.8895 60.8072 16.5542 59.7055 16.1607C58.6006 15.7673 57.725 15.3997 57.0789 15.0611C56.4327 14.7225 55.877 14.2388 55.4085 13.6132C54.9401 12.9875 54.7042 12.1846 54.7042 11.2042C54.7042 9.9369 55.2147 8.91142 56.2389 8.13425C57.263 7.35708 58.6329 6.96688 60.3452 6.96688C61.9251 6.96043 63.5954 7.34095 65.353 8.102Z" fill="white"/>
<path d="M82.5829 17.4129V20.6345C80.8028 21.6148 78.9353 22.1017 76.9839 22.1017C74.4542 22.1017 72.4414 21.3794 70.9391 19.9315C69.44 18.4835 68.6904 16.7002 68.6904 14.5783C68.6904 12.4564 69.482 10.657 71.0618 9.18005C72.6417 7.7031 74.7094 6.9614 77.2585 6.9614C79.2907 6.9614 81.0128 7.39352 82.4214 8.26098V11.547C80.6929 10.5409 79.0581 10.0346 77.5138 10.0346C75.9985 10.0346 74.7579 10.4571 73.7951 11.2987C72.8323 12.1404 72.3509 13.2142 72.3509 14.5171C72.3509 15.8263 72.8259 16.9098 73.7725 17.7612C74.7191 18.6125 75.9371 19.0382 77.4201 19.0382C78.1535 19.0382 78.861 18.9382 79.5427 18.7383C80.2244 18.5384 81.2357 18.0966 82.5829 17.4129Z" fill="white"/>
<path d="M101.968 7.15182V21.9149H98.0874V15.9426H90.3238V21.9117H86.4436V7.15182H90.3238V13.079H98.0874V7.15182H101.968Z" fill="white"/>
<path d="M117.366 19.2093V21.9149H106.462V7.15182H117.217V9.85742H110.145V12.9532H116.888V15.6588H110.145V19.2093H117.366Z" fill="white"/>
<path d="M125.288 7.15182V21.9149H121.605V7.15182H125.288Z" fill="white"/>
<path d="M143.339 7.15182V9.85742H137.982V21.9149H134.299V9.85742H128.942V7.15182H143.339Z" fill="white"/>
<path d="M158.148 19.2093V21.9149H146.876V7.15182H150.559V19.2093H158.148Z" fill="white"/>
<path d="M164.672 7.15182V21.9149H160.988V7.15182H164.672Z" fill="white"/>
<path d="M185 7.15182V21.9149H181.753L173.237 12.4566V21.9149H169.392V7.15182H172.917L181.155 16.1748V7.15182H185Z" fill="white"/>
<path d="M46.084 20.7884C46.084 13.9866 42.7045 7.92529 37.4326 3.97794V12.5806C35.0369 10.894 30.3663 7.77196 25.0225 7.77196C21.5809 7.77196 20.5972 9.45856 20.5972 10.9559C20.5972 12.7045 21.8882 13.6408 25.3886 15.3241C33.6838 19.3204 39.2106 22.2565 39.2106 29.6194C39.2106 34.2551 37.0306 37.811 33.4354 40C40.9395 36.4506 46.084 29.1823 46.084 20.7884Z" fill="#5FEA83"/>
<path d="M21.5811 33.4416C26.5588 33.4416 26.6798 30.7567 26.6798 30.3196C26.6798 27.8207 23.7317 26.4473 20.3522 25.0119C14.5181 22.5162 8.49778 18.9571 8.49778 11.4017C8.49778 6.34186 11.3184 1.8073 17.3224 0C7.36365 2.3782 0 10.8144 0 20.8623C0 27.7554 3.47102 33.8885 8.86384 37.8293V28.8222C11.1975 30.3196 16.0543 33.4416 21.5811 33.4416Z" fill="white"/>
</svg>
