<svg width="20" height="18" viewBox="0 0 20 18" fill="none" xmlns="http://www.w3.org/2000/svg">
<path d="M4.64519 1.83991C3.63108 2.1863 2.9721 2.69972 2.5255 3.46945C2.6384 3.59246 2.77839 3.74198 2.94218 3.91121C3.41928 4.40415 4.09372 5.05961 4.88477 5.71282C5.67798 6.36781 6.57368 7.00822 7.493 7.48173C8.41798 7.95815 9.32048 8.24149 10.1404 8.24039C10.9586 8.2393 11.8589 7.95471 12.7813 7.47781C13.6981 7.00383 14.591 6.36373 15.3816 5.70939C16.1701 5.05684 16.8423 4.40235 17.3177 3.91023C17.4881 3.73378 17.6327 3.57881 17.7477 3.45304C17.5699 3.15045 17.3632 2.89488 17.1253 2.67677C16.5785 2.17554 15.8024 1.81256 14.6563 1.57907C13.505 1.34453 12.0325 1.2508 10.1414 1.2508C7.64082 1.2508 5.88688 1.41578 4.64519 1.83991ZM18.3296 5.02138C17.8317 5.53302 17.144 6.19797 16.338 6.86498C15.4975 7.5606 14.5136 8.27078 13.4702 8.81026C12.4324 9.34681 11.289 9.73885 10.1424 9.74039C8.99325 9.74193 7.84688 9.35128 6.80615 8.81524C5.75976 8.27628 4.7729 7.56574 3.92968 6.86946C3.13029 6.20936 2.44671 5.55099 1.94847 5.04093C1.72502 6.04461 1.63 7.33077 1.63 8.99039C1.63 12.5063 2.06342 14.3011 3.15746 15.304C3.70425 15.8052 4.48033 16.1682 5.62647 16.4017C6.77775 16.6363 8.25024 16.73 10.1414 16.73C12.0325 16.73 13.505 16.6363 14.6563 16.4017C15.8024 16.1682 16.5785 15.8052 17.1253 15.304C18.2193 14.3011 18.6527 12.5063 18.6527 8.99039C18.6527 7.30674 18.5534 6.01774 18.3296 5.02138Z" stroke="#4FD471" stroke-width="1.5" stroke-linecap="round" stroke-linejoin="round"/>
</svg>
