<svg width="20" height="18" viewBox="0 0 20 18" fill="none" xmlns="http://www.w3.org/2000/svg">
<path d="M1.63 8.99039C1.63 12.5063 2.06342 14.3011 3.15746 15.304C3.70425 15.8052 4.48033 16.1682 5.62647 16.4017C6.77775 16.6363 8.25024 16.73 10.1414 16.73C12.0325 16.73 13.505 16.6363 14.6563 16.4017C15.8024 16.1682 16.5785 15.8052 17.1253 15.304C18.2193 14.3011 18.6527 12.5063 18.6527 8.99039C18.6527 5.47452 18.2193 3.67964 17.1253 2.67677C16.5785 2.17554 15.8024 1.81256 14.6563 1.57907C13.505 1.34453 12.0325 1.2508 10.1414 1.2508C7.64082 1.2508 5.88688 1.41578 4.64519 1.83991C3.45681 2.24583 2.75608 2.88111 2.31334 3.88945C1.82503 5.00157 1.63 6.61271 1.63 8.99039Z" stroke="#4FD471" stroke-width="1.5" stroke-linecap="round" stroke-linejoin="round"/>
</svg>
