<svg width="18" height="20" viewBox="0 0 18 20" fill="none" xmlns="http://www.w3.org/2000/svg">
<path d="M1.38193 10.0081C1.75009 12.0459 2.89254 13.7631 4.23933 15.1386C5.58494 16.5129 7.09776 17.5081 8.1283 18.099C8.68093 18.4158 9.3383 18.4158 9.89093 18.099L10.264 18.7496L9.89093 18.099C10.9215 17.5081 12.4343 16.5129 13.7799 15.1386C15.1267 13.7631 16.2692 12.0459 16.6373 10.0081C16.954 8.25501 16.6138 6.15084 15.4283 4.50141C14.2646 2.88228 12.2356 1.63009 9.00961 1.63009C5.78367 1.63009 3.75461 2.88228 2.59087 4.50141C1.40536 6.15084 1.0652 8.25501 1.38193 10.0081Z" stroke="#4FD471" stroke-width="1.5" stroke-linecap="round" stroke-linejoin="round"/>
<circle r="2.33712" transform="matrix(-1 0 0 1 9.00956 8.5986)" stroke="#4FD471" stroke-width="1.5"/>
</svg>
