<svg width="20" height="20" viewBox="0 0 20 20" fill="none" xmlns="http://www.w3.org/2000/svg">
<path d="M1.62988 10.1415C1.62988 10.9355 1.6831 11.6686 1.7873 12.3421C2.12302 14.5123 2.98391 16.0557 4.31239 17.0703C5.65408 18.0949 7.56765 18.6528 10.1413 18.6528C12.7149 18.6528 14.6284 18.0949 15.9701 17.0703C17.2986 16.0557 18.1595 14.5123 18.4952 12.3421C18.5994 11.6686 18.6526 10.9355 18.6526 10.1415C18.6526 9.34741 18.5994 8.61436 18.4952 7.94078C18.1595 5.77067 17.2986 4.22723 15.9701 3.21266C14.6284 2.188 12.7149 1.63009 10.1413 1.63009C7.56764 1.63009 5.65408 2.188 4.31239 3.21266C2.98391 4.22723 2.12302 5.77067 1.7873 7.94078C1.6831 8.61436 1.62988 9.34741 1.62988 10.1415Z" stroke="#4FD471" stroke-width="1.5" stroke-linecap="round" stroke-linejoin="round"/>
<path d="M12.4787 10.1415C12.4787 12.422 12.1413 14.6577 11.6108 16.2999C11.3442 17.1252 11.0419 17.7591 10.7391 18.1706C10.4217 18.602 10.2107 18.6529 10.1416 18.6529C10.0725 18.6529 9.86139 18.602 9.54401 18.1706C9.24124 17.7591 8.93896 17.1252 8.67232 16.2999C8.14179 14.6577 7.80444 12.422 7.80444 10.1415C7.80444 7.86104 8.14179 5.62533 8.67232 3.98312C8.93896 3.15779 9.24124 2.52385 9.54401 2.11236C9.86139 1.68103 10.0725 1.63013 10.1416 1.63013C10.2107 1.63013 10.4217 1.68103 10.7391 2.11236C11.0419 2.52385 11.3442 3.15779 11.6108 3.98312C12.1413 5.62533 12.4787 7.86104 12.4787 10.1415Z" stroke="#4FD471" stroke-width="1.5"/>
</svg>
